<svg xmlns="http://www.w3.org/2000/svg" width="25" height="25" viewBox="0 0 25 25"><defs><style>.a{fill:#fff;}</style></defs><path class="a" d="M144.064,144H133.625l5.22,4.474Zm0,0" transform="translate(-126.345 -136.023)"/><path class="a" d="M126.006,158.393a.461.461,0,0,1-.3-.111L120,153.391v8.7h12.013v-8.7l-5.706,4.891a.461.461,0,0,1-.3.111Zm0,0" transform="translate(-113.506 -144.982)"/><path class="a" d="M12.5,0A12.5,12.5,0,1,0,25,12.5,12.5,12.5,0,0,0,12.5,0Zm6.7,17.411a.446.446,0,0,1-.446.446H6.25a.446.446,0,0,1-.446-.446V7.589a.446.446,0,0,1,.446-.446h12.5a.446.446,0,0,1,.446.446Zm0,0"/></svg>