<svg xmlns="http://www.w3.org/2000/svg" width="80" height="115" viewBox="0 0 80 115"><defs><style>.a{fill:#fff;}</style></defs><g transform="translate(-1205 -9680)"><g transform="translate(1205 9680)"><path class="a" d="M144.064,144H133.625l5.22,4.474Zm0,0" transform="translate(-126.345 -136.023)"/><path class="a" d="M126.006,158.393a.461.461,0,0,1-.3-.111L120,153.391v8.7h12.013v-8.7l-5.706,4.891a.461.461,0,0,1-.3.111Zm0,0" transform="translate(-113.506 -144.982)"/><path class="a" d="M12.5,0A12.5,12.5,0,1,0,25,12.5,12.5,12.5,0,0,0,12.5,0Zm6.7,17.411a.446.446,0,0,1-.446.446H6.25a.446.446,0,0,1-.446-.446V7.589a.446.446,0,0,1,.446-.446h12.5a.446.446,0,0,1,.446.446Zm0,0"/></g><path class="a" d="M25,12.5A12.5,12.5,0,1,0,12.5,25c.073,0,.146,0,.22,0V15.269H10.034v-3.13H12.72v-2.3a3.761,3.761,0,0,1,4.014-4.126,21.815,21.815,0,0,1,2.407.122V8.623H17.5c-1.294,0-1.548.615-1.548,1.519v1.992h3.1l-.405,3.13h-2.7v9.253A12.5,12.5,0,0,0,25,12.5Z" transform="translate(1205 9725)"/><g transform="translate(1205 9770)"><path class="a" d="M211.785,209.393A2.393,2.393,0,1,1,209.393,207,2.393,2.393,0,0,1,211.785,209.393Zm0,0" transform="translate(-196.893 -196.893)"/><path class="a" d="M146.965,137.14a2.377,2.377,0,0,0-1.362-1.362,3.971,3.971,0,0,0-1.333-.247c-.757-.035-.984-.042-2.9-.042s-2.144.007-2.9.042a3.974,3.974,0,0,0-1.333.247,2.378,2.378,0,0,0-1.362,1.362,3.973,3.973,0,0,0-.247,1.333c-.035.757-.042.984-.042,2.9s.007,2.143.042,2.9a3.971,3.971,0,0,0,.247,1.333,2.377,2.377,0,0,0,1.362,1.362,3.966,3.966,0,0,0,1.333.247c.757.035.984.042,2.9.042s2.144-.007,2.9-.042a3.966,3.966,0,0,0,1.333-.247,2.377,2.377,0,0,0,1.362-1.362,3.975,3.975,0,0,0,.247-1.333c.035-.757.042-.984.042-2.9s-.007-2.144-.042-2.9A3.967,3.967,0,0,0,146.965,137.14Zm-5.6,7.919a3.686,3.686,0,1,1,3.686-3.686A3.686,3.686,0,0,1,141.369,145.059ZM145.2,138.4a.861.861,0,1,1,.861-.861A.861.861,0,0,1,145.2,138.4Zm0,0" transform="translate(-128.869 -128.873)"/><path class="a" d="M12.5,0A12.5,12.5,0,1,0,25,12.5,12.5,12.5,0,0,0,12.5,0Zm7.134,15.459A5.266,5.266,0,0,1,19.3,17.2a3.67,3.67,0,0,1-2.1,2.1,5.27,5.27,0,0,1-1.742.334c-.765.035-1.01.043-2.959.043s-2.194-.008-2.959-.043A5.27,5.27,0,0,1,7.8,19.3a3.67,3.67,0,0,1-2.1-2.1,5.265,5.265,0,0,1-.334-1.742c-.035-.766-.043-1.01-.043-2.959s.008-2.194.043-2.959A5.267,5.267,0,0,1,5.7,7.8,3.673,3.673,0,0,1,7.8,5.7a5.271,5.271,0,0,1,1.742-.334c.765-.035,1.01-.043,2.959-.043s2.194.008,2.959.043A5.272,5.272,0,0,1,17.2,5.7a3.671,3.671,0,0,1,2.1,2.1,5.266,5.266,0,0,1,.334,1.742c.035.765.043,1.01.043,2.959S19.67,14.694,19.634,15.459Zm0,0"/></g><path class="a" d="M12.5,0A12.5,12.5,0,1,0,25,12.5,12.5,12.5,0,0,0,12.5,0ZM8.868,18.9H5.823V9.738H8.868ZM7.346,8.487h-.02a1.587,1.587,0,1,1,.04-3.165,1.587,1.587,0,1,1-.02,3.165Zm12.5,10.41H16.8V14c0-1.231-.441-2.071-1.542-2.071A1.667,1.667,0,0,0,13.7,13.039a2.085,2.085,0,0,0-.1.743V18.9H10.552s.04-8.3,0-9.159H13.6v1.3A3.022,3.022,0,0,1,16.34,9.523c2,0,3.5,1.309,3.5,4.122Zm0,0" transform="translate(1260 9680)"/><g transform="translate(1260 9724.992)"><g transform="translate(0 0.008)"><path class="a" d="M12.5.008A12.5,12.5,0,0,0,7.483,23.956,10.881,10.881,0,0,1,7.7,21.086c.242-1.015,1.61-6.812,1.61-6.812a4.8,4.8,0,0,1-.4-1.977c0-1.853,1.073-3.236,2.409-3.236a1.674,1.674,0,0,1,1.686,1.876c0,1.142-.728,2.853-1.1,4.436a1.935,1.935,0,0,0,1.972,2.408c2.369,0,3.964-3.043,3.964-6.646,0-2.739-1.845-4.79-5.2-4.79a5.918,5.918,0,0,0-6.153,5.985,3.6,3.6,0,0,0,.824,2.451.607.607,0,0,1,.178.7c-.06.23-.2.784-.255,1a.431.431,0,0,1-.626.314c-1.746-.714-2.559-2.625-2.559-4.775,0-3.551,2.995-7.808,8.932-7.808,4.773,0,7.916,3.452,7.916,7.16,0,4.9-2.727,8.567-6.747,8.567A3.584,3.584,0,0,1,11.1,18.381s-.726,2.881-.879,3.436a10.536,10.536,0,0,1-1.258,2.678A12.5,12.5,0,1,0,12.5.008Z" transform="translate(0 -0.008)"/></g></g><path class="a" d="M12.5,0A12.5,12.5,0,1,0,25,12.5,12.5,12.5,0,0,0,12.5,0Zm5.707,9.746q.008.185.008.371a8.108,8.108,0,0,1-8.163,8.163h0a8.121,8.121,0,0,1-4.4-1.289,5.835,5.835,0,0,0,.684.04A5.757,5.757,0,0,0,9.9,15.8a2.872,2.872,0,0,1-2.68-1.993,2.86,2.86,0,0,0,1.3-.049,2.87,2.87,0,0,1-2.3-2.812c0-.013,0-.025,0-.037a2.849,2.849,0,0,0,1.3.359,2.872,2.872,0,0,1-.888-3.83,8.146,8.146,0,0,0,5.914,3,2.871,2.871,0,0,1,4.889-2.616,5.755,5.755,0,0,0,1.822-.7,2.88,2.88,0,0,1-1.262,1.587,5.722,5.722,0,0,0,1.648-.452,5.831,5.831,0,0,1-1.431,1.486Zm0,0" transform="translate(1260 9770)"/></g></svg>