<svg xmlns="http://www.w3.org/2000/svg" width="25" height="25" viewBox="0 0 25 25"><defs><style>.a{fill:#fff;}</style></defs><path class="a" d="M211.785,209.393A2.393,2.393,0,1,1,209.393,207,2.393,2.393,0,0,1,211.785,209.393Zm0,0" transform="translate(-196.893 -196.893)"/><path class="a" d="M146.965,137.14a2.377,2.377,0,0,0-1.362-1.362,3.971,3.971,0,0,0-1.333-.247c-.757-.035-.984-.042-2.9-.042s-2.144.007-2.9.042a3.974,3.974,0,0,0-1.333.247,2.378,2.378,0,0,0-1.362,1.362,3.973,3.973,0,0,0-.247,1.333c-.035.757-.042.984-.042,2.9s.007,2.143.042,2.9a3.971,3.971,0,0,0,.247,1.333,2.377,2.377,0,0,0,1.362,1.362,3.966,3.966,0,0,0,1.333.247c.757.035.984.042,2.9.042s2.144-.007,2.9-.042a3.966,3.966,0,0,0,1.333-.247,2.377,2.377,0,0,0,1.362-1.362,3.975,3.975,0,0,0,.247-1.333c.035-.757.042-.984.042-2.9s-.007-2.144-.042-2.9A3.967,3.967,0,0,0,146.965,137.14Zm-5.6,7.919a3.686,3.686,0,1,1,3.686-3.686A3.686,3.686,0,0,1,141.369,145.059ZM145.2,138.4a.861.861,0,1,1,.861-.861A.861.861,0,0,1,145.2,138.4Zm0,0" transform="translate(-128.869 -128.873)"/><path class="a" d="M12.5,0A12.5,12.5,0,1,0,25,12.5,12.5,12.5,0,0,0,12.5,0Zm7.134,15.459A5.266,5.266,0,0,1,19.3,17.2a3.67,3.67,0,0,1-2.1,2.1,5.27,5.27,0,0,1-1.742.334c-.765.035-1.01.043-2.959.043s-2.194-.008-2.959-.043A5.27,5.27,0,0,1,7.8,19.3a3.67,3.67,0,0,1-2.1-2.1,5.265,5.265,0,0,1-.334-1.742c-.035-.766-.043-1.01-.043-2.959s.008-2.194.043-2.959A5.267,5.267,0,0,1,5.7,7.8,3.673,3.673,0,0,1,7.8,5.7a5.271,5.271,0,0,1,1.742-.334c.765-.035,1.01-.043,2.959-.043s2.194.008,2.959.043A5.272,5.272,0,0,1,17.2,5.7a3.671,3.671,0,0,1,2.1,2.1,5.266,5.266,0,0,1,.334,1.742c.035.765.043,1.01.043,2.959S19.67,14.694,19.634,15.459Zm0,0"/></svg>