<svg xmlns="http://www.w3.org/2000/svg" width="25" height="25" viewBox="0 0 25 25"><defs><style>.a{fill:#fff;}</style></defs><path class="a" d="M12.5,0A12.5,12.5,0,1,0,25,12.5,12.5,12.5,0,0,0,12.5,0ZM8.868,18.9H5.823V9.738H8.868ZM7.346,8.487h-.02a1.587,1.587,0,1,1,.04-3.165,1.587,1.587,0,1,1-.02,3.165Zm12.5,10.41H16.8V14c0-1.231-.441-2.071-1.542-2.071A1.667,1.667,0,0,0,13.7,13.039a2.085,2.085,0,0,0-.1.743V18.9H10.552s.04-8.3,0-9.159H13.6v1.3A3.022,3.022,0,0,1,16.34,9.523c2,0,3.5,1.309,3.5,4.122Zm0,0"/></svg>