<svg xmlns="http://www.w3.org/2000/svg" width="231.619" height="61.68" viewBox="0 0 231.619 61.68"><defs><style>.a{fill:#fff;}</style></defs><g transform="translate(-10.997 -13.78)"><path class="a" d="M188.642,150.077a15.466,15.466,0,0,1-3.088,2.311,7.859,7.859,0,0,1-5.341,1.108,4.372,4.372,0,0,1-3.785-4.651v-.313c.012-1.568.007-1.587-1.563-1.108a12.226,12.226,0,0,0-6.165,3.834,2.454,2.454,0,0,0-.661,1.554c0,.419.135,1-.512,1.047a1.318,1.318,0,0,1-1.426-.886,3.169,3.169,0,0,1-.071-1.7c.114-.545-.1-.663-.587-.412a47.352,47.352,0,0,0-6.018,3.524,1.226,1.226,0,0,0-.519,1.059c-.149,2.709-.1,5.428-.441,8.128a27.612,27.612,0,0,1-1.914,7.965,7.822,7.822,0,0,1-2.482,3.271c-1.734,1.262-3.441.817-5.08-.109a6.741,6.741,0,0,1-3.119-8.464,20.944,20.944,0,0,1,4.592-7.034,38.919,38.919,0,0,1,5.6-5.13,1.553,1.553,0,0,0,.758-1.639c-.095-.635-.123-1.279-.18-1.916-.3.017-.353.22-.467.351a17.834,17.834,0,0,1-2.6,2.491,3.96,3.96,0,0,1-5.909-.909,6.492,6.492,0,0,1-.72-6.409,1.4,1.4,0,0,1,1.151-1.059c.7-.054,1.127.488,1.561.924a.466.466,0,0,1-.09.753c-1.168.725-.98,1.937-1.066,3.02a4.782,4.782,0,0,0,.268,1.613,1.517,1.517,0,0,0,2.311,1.061,4.88,4.88,0,0,0,1.421-.964,12.991,12.991,0,0,0,3.78-5.577.743.743,0,0,1,1.113-.5,1.8,1.8,0,0,1,1.217,1.67c.092,1.407.225,2.811.279,4.218.026.642.173.687.715.388a29.1,29.1,0,0,1,6.039-2.6.85.85,0,0,0,.682-.831c.066-.675.128-1.35.213-2.025s.464-.886,1.092-.606a1.582,1.582,0,0,1,.959,1.71,2.6,2.6,0,0,0-.017.992,21.617,21.617,0,0,1,3.465-1.878,13.231,13.231,0,0,1,3.479-.912,3.054,3.054,0,0,1,2.439.6,2.158,2.158,0,0,1,.711,2.2,9.4,9.4,0,0,0-.126,2.03c.036,1.068.374,1.428,1.447,1.584a4.677,4.677,0,0,0,2.527-.4,30.015,30.015,0,0,0,6.124-3.927,1.115,1.115,0,0,0,.353-.914c.043-.5-.081-1.123.687-1.2a1.546,1.546,0,0,1,1.409,1.255,4.345,4.345,0,0,1,0,.86c-.043.6.171.6.618.32a14.747,14.747,0,0,1,6.16-2.4,3.683,3.683,0,0,1,2,.2,2.147,2.147,0,0,1,1.319,2.264c-.028.365-.047.729-.1,1.092-.161,1.165.22,1.745,1.435,1.98a27.161,27.161,0,0,0,6.411.31c3.5-.161,6.989-.438,10.463-.893a53.839,53.839,0,0,0,5.852-1.1,4.093,4.093,0,0,1,.777-.109c.291-.012.618.007.737.322.133.353-.187.5-.419.661a9.563,9.563,0,0,1-3.05,1.205,60.018,60.018,0,0,1-17.462,2.053,10.445,10.445,0,0,1-3.976-.789,4.8,4.8,0,0,1-2.984-4.576c-.028-1.044-.036-1.066-1.073-.812a12.073,12.073,0,0,0-6.345,3.678,2.64,2.64,0,0,0-.857,1.79c0,.469.1,1.063-.628,1.151a1.441,1.441,0,0,1-1.433-1.2A11.584,11.584,0,0,1,188.642,150.077Zm-31.882,6.278c-.2.156-.284.213-.358.284a53.949,53.949,0,0,0-6.567,7.354,12.959,12.959,0,0,0-2.269,4.67,4.427,4.427,0,0,0,.609,3.6c.874,1.312,2.795,2.245,4.455.5a10,10,0,0,0,1.98-3.261,33.048,33.048,0,0,0,2.041-9.374A18.488,18.488,0,0,0,156.76,156.355Z" transform="translate(-102.575 -100.123)"/><path class="a" d="M21.965,56.5c.914,0,1.828-.019,2.743.009.4.012.639-.095.753-.5A43.491,43.491,0,0,0,26.74,49.97c.081-.594-.13-.7-.7-.609a13.8,13.8,0,0,1-8.554-1.217,11.333,11.333,0,0,1-6.018-13.618,3.7,3.7,0,0,1,.886-1.888c.234-.22.457-.628.831-.424s.2.611.1.924a16.045,16.045,0,0,0-.782,3.344,10.174,10.174,0,0,0,7.515,10.826,13.908,13.908,0,0,0,6.518-.149.615.615,0,0,0,.552-.635,38.748,38.748,0,0,0,.1-5.243c-.014-.469-.071-.938-.073-1.407-.028-4.727-.256-9.45-.187-14.177a25.653,25.653,0,0,1,.841-6.9c1.537-5.253,6.906-6.672,10.88-2.88a13.765,13.765,0,0,1,3.875,7.633C43.958,31,41.956,37.56,37.094,43.286a17.3,17.3,0,0,1-7.373,5.156.749.749,0,0,0-.535.755A24.56,24.56,0,0,1,27.7,55.666c-.237.632-.206.874.557.876,5.229.019,10.449.348,15.669.63a1.584,1.584,0,0,1,1.023.327,1.011,1.011,0,0,1,.452,1.016c-.1.4-.495.414-.829.462a35.433,35.433,0,0,1-5.4-.066c-2.69-.031-5.381-.173-8.071-.265-1.279-.045-2.56-.073-3.839-.142a1.07,1.07,0,0,0-1.125.632,10.649,10.649,0,0,1-3.117,3.676,5.777,5.777,0,0,1-7-.211,3.107,3.107,0,0,1-1.26-3.387,3.216,3.216,0,0,1,2.825-2.567A20.338,20.338,0,0,1,21.965,56.5Zm18.951-28.4a19.775,19.775,0,0,0-1.459-8.19,7.374,7.374,0,0,0-3.015-3.6,4.218,4.218,0,0,0-6.406,2.217,9.479,9.479,0,0,0-.516,1.883,66.149,66.149,0,0,0-.234,12.9A116.486,116.486,0,0,1,29.4,45.444c-.012.2-.133.45.078.58s.4-.059.58-.144a3.7,3.7,0,0,0,.343-.187C37.4,41.489,40.346,35,40.917,28.106ZM23.929,58.538a34.356,34.356,0,0,0-7.093.377.921.921,0,0,0-.746,1.241,2.376,2.376,0,0,0,2.293,1.883C20.194,62.15,23.043,60.381,23.929,58.538Z" transform="translate(0 0)"/><path class="a" d="M512.554,54.438c2.25,0,4.5-.028,6.75.014.774.014,1.044-.2,1.04-1.009-.021-3.552-.04-7.107.064-10.657a88.586,88.586,0,0,1,.564-10.238,9.882,9.882,0,0,1,.433-1.906c.192-.54.535-.862,1.134-.616.545.225.99.59.763,1.255a20.421,20.421,0,0,0-.8,5.8c-.211,4.748-.379,9.5-.391,14.253,0,.729-.038,1.464-.1,2.191s.185,1.025.957,1.03c1.724.014,3.451.1,5.172.189a3.061,3.061,0,0,1,1.736.377c.258.185.571.393.493.737-.092.407-.5.3-.8.294-2.117-.026-4.234-.076-6.354-.107-1.1-.017-1.092,0-1.1,1.068a142.162,142.162,0,0,0,.677,16.036c.073.7.23,1.39.334,2.086.095.63-.159.831-.751.6a1.766,1.766,0,0,1-1.125-1.3,21.288,21.288,0,0,1-.542-4.265c-.147-3.155-.377-6.307-.374-9.469,0-1.357-.085-2.714-.107-4.071-.007-.495-.194-.7-.7-.7q-7.062.025-14.127.019c-.509,0-.689.2-.692.7-.014,3.631.05,7.259.279,10.882.088,1.381.194,2.759.282,4.14.033.533-.27.658-.7.464a1.736,1.736,0,0,1-1.021-1.3,26.306,26.306,0,0,1-.44-3.967c-.142-3.261-.22-6.522-.315-9.786-.028-.983-.026-1.021-1.03-.971-1.253.062-2.5.163-3.754.272a1.683,1.683,0,0,1-1.7-.528c-.429-.573-.277-.969.438-1.08,1.708-.268,3.434-.322,5.156-.419.6-.033.893-.175.907-.843.054-2.323.208-4.642.246-6.965.076-4.805.234-9.606.521-14.4a29.922,29.922,0,0,1,.426-3.811c.111-.592.4-.893,1.014-.808.7.095,1.068.5.98,1.146a168,168,0,0,0-1,18.129q-.1,3.286-.275,6.572c-.038.715.187.957.921.943,2.3-.043,4.6-.014,6.906-.014A.3.3,0,0,1,512.554,54.438Z" transform="translate(-370.195 -10.547)"/><path class="a" d="M781.249,83.893c-.474,1-.838,1.831-1.25,2.634a10.625,10.625,0,0,1-2.366,3.195c-2.965,2.626-6.321.478-7.169-1.871a3.821,3.821,0,0,1,1.461-4.362c1.911-1.395,4.052-1.352,6.243-.952a2.07,2.07,0,0,1,.457.1c.666.291.9-.033,1.106-.635A42.013,42.013,0,0,0,781.9,71.061c.18-3.072.592-6.129,1.054-9.175.126-.822.526-.992,1.246-.557a1.62,1.62,0,0,1,.862,1.629c-.36,4.237-.5,8.493-1.265,12.689a38.641,38.641,0,0,0-.4,5.461c-.142,3.837-.329,7.676-.163,11.512a30.625,30.625,0,0,0,.746,6.991,2.536,2.536,0,0,0,.912,1.582c.294.206.578.568.308.938s-.668.187-1,.024A4.058,4.058,0,0,1,782.17,99.5a21.064,21.064,0,0,1-.765-4.7c-.253-3.339-.152-6.681-.156-10.025C781.249,84.544,781.249,84.319,781.249,83.893Zm-4.256.232c-.208,0-.419-.017-.625,0a4.383,4.383,0,0,0-3.695,1.854,2.37,2.37,0,0,0,.055,2.9c.684.654,1.708.6,2.8-.142a8.074,8.074,0,0,0,2.437-2.913c.26-.464.838-1,.573-1.44C778.291,83.968,777.537,84.137,776.993,84.125Z" transform="translate(-579.44 -36.111)"/><path class="a" d="M651.207,150.248a13.7,13.7,0,0,1,4.727-3.436,4.581,4.581,0,0,1,2.676-.384,2.118,2.118,0,0,1,1.338.89.791.791,0,0,1-.287,1.26c-.464.284-.9.346-1.054-.365-.085-.381-.386-.182-.578-.144a8.094,8.094,0,0,0-3.92,2.188,8.663,8.663,0,0,0-3.152,5.762c-.081,1.044-.6,1.194-1.452.535a1.936,1.936,0,0,1-.715-1.584c-.019-.649,0-1.3,0-1.933-.272-.149-.358.076-.483.175a10.156,10.156,0,0,1-4.5,2.11,4.59,4.59,0,0,1-5.139-2.416c-.305-.578-.507-.561-.957-.166a15.6,15.6,0,0,1-3.7,2.482,10.194,10.194,0,0,1-1.537.58,3.3,3.3,0,0,1-4.133-1.639,3.492,3.492,0,0,1,1.014-4.426A8.257,8.257,0,0,1,637,148.391a3.182,3.182,0,0,1,.594.2.827.827,0,0,0,1.246-.358c.282-.486.637-.838,1.272-.469.725.419.964.89.713,1.594a6.9,6.9,0,0,0-.628,2.726c.069,1.163.507,1.61,1.663,1.6,2.293-.028,4.107-1.217,5.935-2.413a3.02,3.02,0,0,0,1.461-2.731c0-.467-.168-1.144.632-1.205a1.445,1.445,0,0,1,1.3,1.258,6.619,6.619,0,0,1,.014.782C651.209,149.6,651.207,149.836,651.207,150.248Zm-20.744,3.87a1.13,1.13,0,0,0,.156-.009,13.713,13.713,0,0,0,6.425-3.723c.3-.287.047-.388-.227-.422a8.349,8.349,0,0,0-5.916,1.255,3,3,0,0,0-1.284,1.814A.8.8,0,0,0,630.463,154.118Z" transform="translate(-470.827 -101.18)"/><path class="a" d="M854.208,152.9c-.7.609-1.272,1.13-1.869,1.62a13.651,13.651,0,0,1-4.038,2.371,5.481,5.481,0,0,1-2.7.291c-1.956-.289-3.081-1.5-3.434-3.723a10.125,10.125,0,0,1,.455-5.4,1.078,1.078,0,0,1,1.755-.564.909.909,0,0,1,.422,1.191,17.791,17.791,0,0,0-.718,5.412c.024.874.351,1.217,1.22,1.312a5.264,5.264,0,0,0,2.662-.54,25.439,25.439,0,0,0,6.219-4.052c.329-.275.308-.625.36-.988.071-.5-.111-1.2.737-1.222a1.536,1.536,0,0,1,1.3,1.44c0,.36-.055.718-.095,1.224.554-.332.985-.6,1.433-.85a11.454,11.454,0,0,1,5.935-1.769,2.069,2.069,0,0,1,2.217,2.338c-.024.573-.135,1.142-.149,1.715-.043,1.592.739,2.24,2.307,1.994a9.261,9.261,0,0,0,3.716-1.6c1.348-.9,2.648-1.869,3.976-2.8.2-.142.431-.4.694-.234.284.178.194.507.159.791a2.425,2.425,0,0,1-.561,1.274,11.023,11.023,0,0,1-7.114,4.2,4.4,4.4,0,0,1-5.156-4.431v-.313c.01-1.473,0-1.49-1.4-1.085a11.933,11.933,0,0,0-5.6,3.3,3.14,3.14,0,0,0-.909,2.025c-.043.746-.4.933-1.1.642a1.316,1.316,0,0,1-.848-1.367C854.1,154.419,854.158,153.729,854.208,152.9Z" transform="translate(-634.195 -101.855)"/><path class="a" d="M850.951,120.53a7.1,7.1,0,0,1-.777,2.094c-.367.613-.914.3-1.385.083s-.805-.493-.549-1.092a5.39,5.39,0,0,0,.478-1.48c.064-.538.216-.98.912-.886C850.438,119.355,850.961,119.812,850.951,120.53Z" transform="translate(-638.891 -80.481)"/></g></svg>