<svg xmlns="http://www.w3.org/2000/svg" width="394.503" height="537.228" viewBox="0 0 394.503 537.228"><defs><style>.a{opacity:0.4;}.b{fill:none;stroke:#e5dada;stroke-miterlimit:10;}</style></defs><g class="a" transform="translate(0.523 536.559) rotate(-90)"><path class="b" d="M69.792,0s160.478,176.7,0,341.849C69.792,341.738-87.24,186.261,69.792,0Z" transform="translate(197.93 50.899)"/><path class="b" d="M0,0S225.713,77.794,164.367,299.729c0,0-53.789-15.336-101.021-61.124" transform="translate(267.722 50.899)"/><path class="b" d="M0,9.778s208.6-68.236,261.5,155.81c0,0-43.676,13.114-96.687,4.334" transform="translate(267.722 41.121)"/><path class="b" d="M0,50.9S153.143-70.571,268.167,61.79c0,0-21.227,23.227-57.456,38.9" transform="translate(267.722 0)"/><path class="b" d="M174.937,0S-50.776,77.794,10.57,299.729c0,0,56.234-17.67,103.577-63.458" transform="translate(93.23 50.899)"/><path class="b" d="M261.5,9.778S52.9-58.458,0,165.588c0,0,43.676,13.114,96.687,4.334" transform="translate(6.668 41.121)"/><path class="b" d="M268.167,50.9S115.024-70.571,0,61.79c0,0,21.227,23.227,57.456,38.9" transform="translate(0 0)"/></g></svg>