<svg xmlns="http://www.w3.org/2000/svg" width="25" height="24.999" viewBox="0 0 25 24.999"><defs><style>.a{fill:#fff;}</style></defs><g transform="translate(0 -0.008)"><g transform="translate(0 0.008)"><path class="a" d="M12.5.008A12.5,12.5,0,0,0,7.483,23.956,10.881,10.881,0,0,1,7.7,21.086c.242-1.015,1.61-6.812,1.61-6.812a4.8,4.8,0,0,1-.4-1.977c0-1.853,1.073-3.236,2.409-3.236a1.674,1.674,0,0,1,1.686,1.876c0,1.142-.728,2.853-1.1,4.436a1.935,1.935,0,0,0,1.972,2.408c2.369,0,3.964-3.043,3.964-6.646,0-2.739-1.845-4.79-5.2-4.79a5.918,5.918,0,0,0-6.153,5.985,3.6,3.6,0,0,0,.824,2.451.607.607,0,0,1,.178.7c-.06.23-.2.784-.255,1a.431.431,0,0,1-.626.314c-1.746-.714-2.559-2.625-2.559-4.775,0-3.551,2.995-7.808,8.932-7.808,4.773,0,7.916,3.452,7.916,7.16,0,4.9-2.727,8.567-6.747,8.567A3.584,3.584,0,0,1,11.1,18.381s-.726,2.881-.879,3.436a10.536,10.536,0,0,1-1.258,2.678A12.5,12.5,0,1,0,12.5.008Z" transform="translate(0 -0.008)"/></g></g></svg>