<svg xmlns="http://www.w3.org/2000/svg" width="1963.477" height="850.622" viewBox="0 0 1963.477 850.622"><defs><style>.a{fill:#cfd7d5;}.a,.b,.d{opacity:0.3;}.b{isolation:isolate;}.c,.d{fill:none;stroke:#2f3f48;}</style></defs><g transform="translate(30.592 -6176.555)"><path class="a" d="M1924.285,5.025c-37.194,33.258-332.729,249.993-964.353,166.5S4.171,388.148,4.171,388.148l.022,467.5,1919.99-.061Z" transform="translate(-4.178 6171.53)"/><g class="b" transform="translate(1673.32 6156.915)"><path class="c" d="M2453.442,669.631s4.034-41.569,25.43-63.088,60.153-22.985,60.153-22.985-43.159-6.6-64.554-27.387-21.029-55.752-21.029-55.752,1.467,36.923-19.073,57.708-63.087,25.431-63.087,25.431,40.591,4.89,61.131,26.409S2453.442,669.631,2453.442,669.631Z" transform="translate(-2343.815 -283.42)"/><path class="c" d="M2403.168,566.091s1.565-16.133,9.869-24.484,23.345-8.921,23.345-8.921-16.75-2.562-25.053-10.629-8.162-21.637-8.162-21.637.569,14.33-7.4,22.4-24.484,9.87-24.484,9.87,15.753,1.9,23.725,10.249S2403.168,566.091,2403.168,566.091Z" transform="translate(-2375.65 -317.288)"/><path class="c" d="M2403.168,566.091s1.565-16.133,9.869-24.484,23.345-8.921,23.345-8.921-16.75-2.562-25.053-10.629-8.162-21.637-8.162-21.637.569,14.33-7.4,22.4-24.484,9.87-24.484,9.87,15.753,1.9,23.725,10.249S2403.168,566.091,2403.168,566.091Z" transform="translate(-2208.621 -147.043)"/></g><path class="d" d="M2719.727,2057.835S2472.846,2002.6,2204,2123.385" transform="translate(-2735.91 5286.079) rotate(-17)"/><path class="d" d="M515.728,12.605S268.847-42.632,0,78.155" transform="translate(1932.604 6841.732) rotate(171)"/></g></svg>