<svg xmlns="http://www.w3.org/2000/svg" width="232.265" height="235.984" viewBox="0 0 232.265 235.984"><defs><style>.a{opacity:0.3;isolation:isolate;}.b{fill:none;stroke:#2f3f48;}</style></defs><g class="a" transform="translate(4.428 -183.112)"><path class="b" d="M2453.442,669.631s4.034-41.569,25.43-63.088,60.153-22.985,60.153-22.985-43.159-6.6-64.554-27.387-21.029-55.752-21.029-55.752,1.467,36.923-19.073,57.708-63.087,25.431-63.087,25.431,40.591,4.89,61.131,26.409S2453.442,669.631,2453.442,669.631Z" transform="translate(-2343.815 -283.42)"/><path class="b" d="M2403.168,566.091s1.565-16.133,9.869-24.484,23.345-8.921,23.345-8.921-16.75-2.562-25.053-10.629-8.162-21.637-8.162-21.637.569,14.33-7.4,22.4-24.484,9.87-24.484,9.87,15.753,1.9,23.725,10.249S2403.168,566.091,2403.168,566.091Z" transform="translate(-2375.65 -317.288)"/><path class="b" d="M2403.168,566.091s1.565-16.133,9.869-24.484,23.345-8.921,23.345-8.921-16.75-2.562-25.053-10.629-8.162-21.637-8.162-21.637.569,14.33-7.4,22.4-24.484,9.87-24.484,9.87,15.753,1.9,23.725,10.249S2403.168,566.091,2403.168,566.091Z" transform="translate(-2208.621 -147.043)"/></g></svg>