<svg xmlns="http://www.w3.org/2000/svg" width="294.02" height="298.746" viewBox="0 0 294.02 298.746"><defs><style>.a{opacity:0.7;}.b{fill:none;stroke:#cad6d5;}</style></defs><g class="a" transform="translate(4.428 -183.112)"><path class="b" d="M2475.3,714.648s5.108-52.628,32.2-79.871,76.156-29.1,76.156-29.1-54.641-8.359-81.729-34.673S2475.3,500.42,2475.3,500.42s1.857,46.746-24.147,73.06-79.871,32.2-79.871,32.2,51.389,6.191,77.394,33.434S2475.3,714.648,2475.3,714.648Z" transform="translate(-2335.345 -274.409)"/><path class="b" d="M2411.651,583.562s1.982-20.425,12.5-31S2453.7,541.27,2453.7,541.27s-21.206-3.244-31.718-13.456-10.333-27.393-10.333-27.393.721,18.142-9.372,28.355-31,12.5-31,12.5,19.944,2.4,30.036,12.976S2411.651,583.562,2411.651,583.562Z" transform="translate(-2375.65 -317.288)"/><path class="b" d="M2411.651,583.562s1.982-20.425,12.5-31S2453.7,541.27,2453.7,541.27s-21.206-3.244-31.718-13.456-10.333-27.393-10.333-27.393.721,18.142-9.372,28.355-31,12.5-31,12.5,19.944,2.4,30.036,12.976S2411.651,583.562,2411.651,583.562Z" transform="translate(-2164.186 -101.752)"/></g></svg>