<svg xmlns="http://www.w3.org/2000/svg" width="391.738" height="398.057" viewBox="0 0 391.738 398.057"><defs><style>.a{opacity:0.4;}.b{fill:none;stroke:#e5dada;}</style></defs><g class="a" transform="translate(4.428 -183.112)"><path class="b" d="M2509.886,785.879s6.806-70.127,42.9-106.429,101.478-38.776,101.478-38.776-72.809-11.138-108.9-46.2-35.475-94.053-35.475-94.053,2.475,62.289-32.177,97.353-106.428,42.9-106.428,42.9,68.476,8.25,103.128,44.551S2509.886,785.879,2509.886,785.879Z" transform="translate(-2321.944 -260.152)"/><path class="b" d="M2425.073,611.206s2.641-27.216,16.65-41.3,39.383-15.049,39.383-15.049-28.257-4.323-42.264-17.931-13.769-36.5-13.769-36.5.96,24.174-12.488,37.783-41.3,16.65-41.3,16.65,26.575,3.2,40.023,17.29S2425.073,611.206,2425.073,611.206Z" transform="translate(-2375.651 -317.288)"/><path class="b" d="M2425.073,611.206s2.641-27.216,16.65-41.3,39.383-15.049,39.383-15.049-28.257-4.323-42.264-17.931-13.769-36.5-13.769-36.5.96,24.174-12.488,37.783-41.3,16.65-41.3,16.65,26.575,3.2,40.023,17.29S2425.073,611.206,2425.073,611.206Z" transform="translate(-2093.873 -30.086)"/></g></svg>