<svg xmlns="http://www.w3.org/2000/svg" width="25" height="25" viewBox="0 0 25 25"><defs><style>.a{fill:#fff;}</style></defs><path class="a" d="M12.5,0A12.5,12.5,0,1,0,25,12.5,12.5,12.5,0,0,0,12.5,0Zm5.707,9.746q.008.185.008.371a8.108,8.108,0,0,1-8.163,8.163h0a8.121,8.121,0,0,1-4.4-1.289,5.835,5.835,0,0,0,.684.04A5.757,5.757,0,0,0,9.9,15.8a2.872,2.872,0,0,1-2.68-1.993,2.86,2.86,0,0,0,1.3-.049,2.87,2.87,0,0,1-2.3-2.812c0-.013,0-.025,0-.037a2.849,2.849,0,0,0,1.3.359,2.872,2.872,0,0,1-.888-3.83,8.146,8.146,0,0,0,5.914,3,2.871,2.871,0,0,1,4.889-2.616,5.755,5.755,0,0,0,1.822-.7,2.88,2.88,0,0,1-1.262,1.587,5.722,5.722,0,0,0,1.648-.452,5.831,5.831,0,0,1-1.431,1.486Zm0,0"/></svg>